<svg width="24" height="24" viewBox="0 0 24 24" fill="none" xmlns="http://www.w3.org/2000/svg">
<g clip-path="url(#clip0_174_1457)">
<path d="M12 0C18.6274 0 24 5.37258 24 12C24 18.6274 18.6274 24 12 24C5.37258 24 0 18.6274 0 12C0 5.37258 5.37258 0 12 0ZM16.9062 7.22363C16.4549 7.23166 15.7617 7.4735 12.4297 8.85938C11.2623 9.34493 8.92933 10.3492 5.43164 11.873C4.86385 12.0989 4.56626 12.3201 4.53906 12.5361C4.48706 12.951 5.08454 13.08 5.83594 13.3242C6.44852 13.5233 7.27264 13.7563 7.70117 13.7656C8.08983 13.774 8.52402 13.614 9.00293 13.2852C12.2713 11.0789 13.9585 9.96349 14.0645 9.93945C14.1391 9.92251 14.2424 9.90175 14.3125 9.96387C14.3824 10.026 14.3765 10.1437 14.3691 10.1758C14.3097 10.429 11.2426 13.2187 11.0625 13.4053C10.3873 14.1065 9.61921 14.5357 10.8037 15.3164C11.8288 15.9919 12.4255 16.4231 13.4814 17.1152C14.1564 17.5577 14.686 18.0827 15.3828 18.0186C15.7034 17.989 16.0349 17.6872 16.2031 16.7881C16.6007 14.6628 17.3819 10.0586 17.5625 8.16113C17.5783 7.99489 17.558 7.78187 17.542 7.68848C17.526 7.59509 17.4924 7.46174 17.3711 7.36328C17.2273 7.24689 17.0054 7.22189 16.9062 7.22363Z" fill="#193129"/>
</g>
<defs>
<clipPath id="clip0_174_1457">
<rect width="24" height="24" fill="white"/>
</clipPath>
</defs>
</svg>
