<svg width="54" height="54" viewBox="0 0 54 54" fill="none" xmlns="http://www.w3.org/2000/svg">
<circle cx="27" cy="27" r="26.75" transform="rotate(-180 27 27)" stroke="#F9E7DF" stroke-width="0.5"/>
<circle cx="27" cy="27" r="22.25" transform="rotate(-180 27 27)" stroke="#F9E7DF" stroke-width="0.5"/>
<path d="M30.7467 37.3688C31.8636 38.056 33.1944 38.3555 34.5155 38.2169C35.8366 38.0783 37.0673 37.51 38.0008 36.6077L38.8169 35.8465C39.1747 35.4975 39.375 35.0287 39.375 34.5405C39.375 34.0524 39.1747 33.5836 38.8169 33.2345L35.3531 29.9652C34.9902 29.625 34.5017 29.4344 33.9929 29.4344C33.4841 29.4344 32.9957 29.625 32.6328 29.9652V29.9652C32.2668 30.3064 31.7754 30.4975 31.2636 30.4975C30.7518 30.4975 30.2603 30.3064 29.8944 29.9652L24.4538 24.7757C24.2723 24.6051 24.1282 24.4018 24.0299 24.1776C23.9315 23.9534 23.8808 23.7128 23.8808 23.4697C23.8808 23.2267 23.9315 22.986 24.0299 22.7618C24.1282 22.5376 24.2723 22.3343 24.4538 22.1637V22.1637C24.8105 21.8176 25.0103 21.3517 25.0103 20.8664C25.0103 20.381 24.8105 19.9151 24.4538 19.569L21.0082 16.2823C20.6422 15.9411 20.1507 15.75 19.639 15.75C19.1272 15.75 18.6357 15.9411 18.2698 16.2823L17.4718 17.0608C16.5258 17.9512 15.93 19.1251 15.7847 20.3852C15.6394 21.6453 15.9534 22.9148 16.6739 23.98C20.4279 29.2572 25.2045 33.8016 30.7467 37.3688V37.3688Z" stroke="#F9E7DF" stroke-width="0.5" stroke-linecap="round" stroke-linejoin="round"/>
</svg>
